<?xml version="1.0" standalone="no"?>
<svg xmlns:xlink="http://www.w3.org/1999/xlink" id="wave" style="transform:rotate(0deg); transition: 0.3s" viewBox="0 0 1440 490" version="1.1" xmlns="http://www.w3.org/2000/svg"><defs><linearGradient id="sw-gradient-0" x1="0" x2="0" y1="1" y2="0"><stop stop-color="rgba(255, 255, 255, 1)" offset="0%"/><stop stop-color="rgba(255, 255, 255, 1)" offset="100%"/></linearGradient></defs><path style="transform:translate(0, 0px); opacity:1" fill="url(#sw-gradient-0)" d="M0,0L34.3,16.3C68.6,33,137,65,206,81.7C274.3,98,343,98,411,98C480,98,549,98,617,89.8C685.7,82,754,65,823,65.3C891.4,65,960,82,1029,130.7C1097.1,180,1166,261,1234,310.3C1302.9,359,1371,376,1440,343C1508.6,310,1577,229,1646,228.7C1714.3,229,1783,310,1851,334.8C1920,359,1989,327,2057,294C2125.7,261,2194,229,2263,196C2331.4,163,2400,131,2469,106.2C2537.1,82,2606,65,2674,106.2C2742.9,147,2811,245,2880,253.2C2948.6,261,3017,180,3086,155.2C3154.3,131,3223,163,3291,147C3360,131,3429,65,3497,65.3C3565.7,65,3634,131,3703,155.2C3771.4,180,3840,163,3909,147C3977.1,131,4046,114,4114,155.2C4182.9,196,4251,294,4320,326.7C4388.6,359,4457,327,4526,318.5C4594.3,310,4663,327,4731,285.8C4800,245,4869,147,4903,98L4937.1,49L4937.1,490L4902.9,490C4868.6,490,4800,490,4731,490C4662.9,490,4594,490,4526,490C4457.1,490,4389,490,4320,490C4251.4,490,4183,490,4114,490C4045.7,490,3977,490,3909,490C3840,490,3771,490,3703,490C3634.3,490,3566,490,3497,490C3428.6,490,3360,490,3291,490C3222.9,490,3154,490,3086,490C3017.1,490,2949,490,2880,490C2811.4,490,2743,490,2674,490C2605.7,490,2537,490,2469,490C2400,490,2331,490,2263,490C2194.3,490,2126,490,2057,490C1988.6,490,1920,490,1851,490C1782.9,490,1714,490,1646,490C1577.1,490,1509,490,1440,490C1371.4,490,1303,490,1234,490C1165.7,490,1097,490,1029,490C960,490,891,490,823,490C754.3,490,686,490,617,490C548.6,490,480,490,411,490C342.9,490,274,490,206,490C137.1,490,69,490,34,490L0,490Z"/><defs><linearGradient id="sw-gradient-1" x1="0" x2="0" y1="1" y2="0"><stop stop-color="rgba(255, 255, 255, 1)" offset="0%"/><stop stop-color="rgba(255, 255, 255, 1)" offset="100%"/></linearGradient></defs><path style="transform:translate(0, 50px); opacity:0.9" fill="url(#sw-gradient-1)" d="M0,147L34.3,122.5C68.6,98,137,49,206,81.7C274.3,114,343,229,411,302.2C480,376,549,408,617,351.2C685.7,294,754,147,823,81.7C891.4,16,960,33,1029,81.7C1097.1,131,1166,212,1234,236.8C1302.9,261,1371,229,1440,204.2C1508.6,180,1577,163,1646,138.8C1714.3,114,1783,82,1851,89.8C1920,98,1989,147,2057,204.2C2125.7,261,2194,327,2263,334.8C2331.4,343,2400,294,2469,228.7C2537.1,163,2606,82,2674,73.5C2742.9,65,2811,131,2880,147C2948.6,163,3017,131,3086,163.3C3154.3,196,3223,294,3291,302.2C3360,310,3429,229,3497,236.8C3565.7,245,3634,343,3703,326.7C3771.4,310,3840,180,3909,171.5C3977.1,163,4046,278,4114,310.3C4182.9,343,4251,294,4320,269.5C4388.6,245,4457,245,4526,220.5C4594.3,196,4663,147,4731,155.2C4800,163,4869,229,4903,261.3L4937.1,294L4937.1,490L4902.9,490C4868.6,490,4800,490,4731,490C4662.9,490,4594,490,4526,490C4457.1,490,4389,490,4320,490C4251.4,490,4183,490,4114,490C4045.7,490,3977,490,3909,490C3840,490,3771,490,3703,490C3634.3,490,3566,490,3497,490C3428.6,490,3360,490,3291,490C3222.9,490,3154,490,3086,490C3017.1,490,2949,490,2880,490C2811.4,490,2743,490,2674,490C2605.7,490,2537,490,2469,490C2400,490,2331,490,2263,490C2194.3,490,2126,490,2057,490C1988.6,490,1920,490,1851,490C1782.9,490,1714,490,1646,490C1577.1,490,1509,490,1440,490C1371.4,490,1303,490,1234,490C1165.7,490,1097,490,1029,490C960,490,891,490,823,490C754.3,490,686,490,617,490C548.6,490,480,490,411,490C342.9,490,274,490,206,490C137.1,490,69,490,34,490L0,490Z"/></svg>